<?xml version="1.0" encoding="UTF-8"?>
<svg id="Layer_1" data-name="Layer 1" xmlns="http://www.w3.org/2000/svg" viewBox="0 0 616.82 622.67">
  <defs>
    <style>
      .cls-1 {
        fill: #fefefe;
      }
    </style>
  </defs>
  <path class="cls-1" d="M308.41,423.14c-47.47,0-88.02-29.58-104.24-71.31-.74-1.91-2.59-3.15-4.64-3.15H5c-3.04,0-5.37,2.7-4.95,5.71,20.97,151.57,151.03,268.28,308.36,268.28s287.39-116.71,308.36-268.28c.42-3.01-1.91-5.71-4.95-5.71h-194.52c-2.05,0-3.9,1.24-4.64,3.15-16.22,41.73-56.77,71.31-104.24,71.31Z"/>
  <path class="cls-1" d="M308.41,199.53c47.47,0,88.02,29.58,104.24,71.31,.74,1.91,2.59,3.15,4.64,3.15h194.52c3.04,0,5.37-2.7,4.95-5.71C595.8,116.71,465.74,0,308.41,0S21.02,116.71,.05,268.28c-.42,3.01,1.91,5.71,4.95,5.71H199.53c2.05,0,3.9-1.24,4.64-3.15,16.22-41.73,56.77-71.31,104.24-71.31Z"/>
  <path class="cls-1" d="M308.41,244.82c-22.89,0-43.08,11.57-55.05,29.17-7.24,10.65-11.47,23.5-11.47,37.34s4.23,26.7,11.47,37.34c11.97,17.61,32.16,29.17,55.05,29.17s43.08-11.57,55.05-29.17c7.24-10.65,11.47-23.5,11.47-37.34s-4.23-26.7-11.47-37.34c-11.97-17.61-32.16-29.17-55.05-29.17Z"/>
</svg>